<svg width="122" height="122" viewBox="0 0 122 122" fill="none" xmlns="http://www.w3.org/2000/svg">
<path d="M33.0417 30.5C37.9725 30.5 42.5475 33.0417 46.3092 37.515C49.105 34.5158 52.4092 32.33 55.9167 31.2625V20.3333C55.9167 17.637 56.9878 15.051 58.8944 13.1444C60.8011 11.2378 63.387 10.1667 66.0834 10.1667H76.25V20.3333H66.0834V31.2625C69.5909 32.33 72.895 34.5158 75.6909 37.515C79.4525 33.0417 84.0275 30.5 88.9584 30.5C101.667 30.5 111.833 47.58 111.833 68.625C111.833 89.67 101.667 106.75 88.9584 106.75C84.0275 106.75 79.4525 104.208 75.6909 99.735C71.5734 104.208 66.49 106.75 61 106.75C55.51 106.75 50.4267 104.208 46.3092 99.735C42.5475 104.208 37.9725 106.75 33.0417 106.75C20.3334 106.75 10.1667 89.67 10.1667 68.625C10.1667 47.58 20.3334 30.5 33.0417 30.5Z" fill="#D17214"/>
</svg>
